<svg width="23" height="22" viewBox="0 0 23 22" fill="none" xmlns="http://www.w3.org/2000/svg">
<path d="M13.6938 9.95801H17.8115C18.3803 9.95801 18.8407 10.4247 18.8407 10.9997C18.8407 11.5747 18.3803 12.0413 17.8115 12.0413H12.6647C12.5287 12.0405 12.3942 12.0129 12.2689 11.9601C12.1436 11.9073 12.0299 11.8304 11.9343 11.7337C11.8388 11.6369 11.7632 11.5223 11.7119 11.3964C11.6606 11.2705 11.6347 11.1356 11.6355 10.9997V4.74967C11.6355 4.17467 12.0959 3.70801 12.6647 3.70801C13.2334 3.70801 13.6938 4.17467 13.6938 4.74967V9.95801ZM19.9438 3.63405C21.8812 5.59533 22.9648 8.24288 22.9584 10.9997C22.9584 16.7528 18.3501 21.4163 12.6647 21.4163V19.333C17.2126 19.333 20.9001 15.6018 20.9001 10.9997C20.9054 8.79398 20.0381 6.6757 18.4876 5.10697C17.7278 4.33378 16.8215 3.71974 15.8217 3.30069C14.8219 2.88165 13.7487 2.666 12.6647 2.66634C8.97299 2.66634 5.84799 5.12467 4.8032 8.51217L6.21153 7.55072C6.32349 7.47428 6.44954 7.42089 6.58233 7.39364C6.71513 7.3664 6.85201 7.36585 6.98502 7.39202C7.11803 7.4182 7.2445 7.47057 7.35707 7.54611C7.46964 7.62164 7.56606 7.71881 7.6407 7.83197C7.79349 8.0612 7.84997 8.34135 7.79793 8.61188C7.74589 8.88241 7.58951 9.12161 7.36258 9.2778L3.94903 11.608C3.83708 11.6844 3.71103 11.7378 3.57824 11.7651C3.44544 11.7923 3.30856 11.7929 3.17555 11.7667C3.04254 11.7405 2.91607 11.6881 2.8035 11.6126C2.69093 11.5371 2.59451 11.4399 2.51987 11.3268L0.218826 7.87259C0.0657111 7.64327 0.00904822 7.36288 0.061099 7.0921C0.11315 6.82132 0.269728 6.58193 0.496951 6.42572C0.608908 6.34928 0.734954 6.29589 0.867748 6.26864C1.00054 6.2414 1.13743 6.24085 1.27044 6.26702C1.40345 6.2932 1.52992 6.34558 1.64249 6.42111C1.75506 6.49664 1.85147 6.59381 1.92612 6.70697L2.80008 8.01842C4.0657 3.71842 8.0032 0.583008 12.6647 0.583008C15.5074 0.583008 18.0813 1.74967 19.9438 3.63405Z" fill="#1E1E1E"/>
</svg>
