<svg width="35" height="36" viewBox="0 0 35 36" fill="none" xmlns="http://www.w3.org/2000/svg">
<path fill-rule="evenodd" clip-rule="evenodd" d="M17.8912 10.3137C18.4189 10.8373 18.4223 11.6896 17.8986 12.2174L12.1608 18L17.8986 23.7826C18.4223 24.3104 18.4189 25.1627 17.8912 25.6863C17.3634 26.21 16.5111 26.2067 15.9875 25.6789L9.30885 18.9482C8.78808 18.4233 8.78808 17.5767 9.30885 17.0518L15.9875 10.3211C16.5111 9.79332 17.3634 9.79 17.8912 10.3137Z" fill="#1E1E1E"/>
<path fill-rule="evenodd" clip-rule="evenodd" d="M9.84627 18C9.84627 17.2565 10.449 16.6538 11.1924 16.6538H24.7356C25.479 16.6538 26.0817 17.2565 26.0817 18C26.0817 18.7435 25.479 19.3462 24.7356 19.3462H11.1924C10.449 19.3462 9.84627 18.7435 9.84627 18Z" fill="#1E1E1E"/>
<path fill-rule="evenodd" clip-rule="evenodd" d="M0 18C0 8.33827 7.83827 0.5 17.5 0.5C27.1617 0.5 35 8.33827 35 18C35 27.6617 27.1617 35.5 17.5 35.5C7.83827 35.5 0 27.6617 0 18ZM17.5 3.19231C9.32519 3.19231 2.69231 9.82519 2.69231 18C2.69231 26.1748 9.32519 32.8077 17.5 32.8077C25.6748 32.8077 32.3077 26.1748 32.3077 18C32.3077 9.82519 25.6748 3.19231 17.5 3.19231Z" fill="#1E1E1E"/>
</svg>
