<svg width="21" height="22" viewBox="0 0 21 22" fill="none" xmlns="http://www.w3.org/2000/svg">
<path d="M3.20825 13.083C2.93198 13.083 2.66703 13.1928 2.47168 13.3881C2.27633 13.5835 2.16659 13.8484 2.16659 14.1247V18.2913C2.16659 18.5676 2.27633 18.8326 2.47168 19.0279C2.66703 19.2233 2.93198 19.333 3.20825 19.333H17.7916C18.0679 19.333 18.3328 19.2233 18.5282 19.0279C18.7235 18.8326 18.8333 18.5676 18.8333 18.2913V14.1247C18.8333 13.8484 18.7235 13.5835 18.5282 13.3881C18.3328 13.1928 18.0679 13.083 17.7916 13.083H3.20825ZM3.20825 10.9997C2.37945 10.9997 1.58459 10.6704 0.998543 10.0844C0.412492 9.49833 0.083252 8.70348 0.083252 7.87467L0.083252 3.70801C0.083252 2.87921 0.412492 2.08435 0.998543 1.4983C1.58459 0.912248 2.37945 0.583008 3.20825 0.583008L17.7916 0.583008C18.6204 0.583008 19.4152 0.912248 20.0013 1.4983C20.5873 2.08435 20.9166 2.87921 20.9166 3.70801V7.87467C20.9166 8.70348 20.5873 9.49833 20.0013 10.0844C19.4152 10.6704 18.6204 10.9997 17.7916 10.9997C18.6204 10.9997 19.4152 11.3289 20.0013 11.915C20.5873 12.501 20.9166 13.2959 20.9166 14.1247V18.2913C20.9166 19.1201 20.5873 19.915 20.0013 20.5011C19.4152 21.0871 18.6204 21.4163 17.7916 21.4163H3.20825C2.37945 21.4163 1.58459 21.0871 0.998543 20.5011C0.412492 19.915 0.083252 19.1201 0.083252 18.2913L0.083252 14.1247C0.083252 13.2959 0.412492 12.501 0.998543 11.915C1.58459 11.3289 2.37945 10.9997 3.20825 10.9997ZM3.20825 2.66634C2.93198 2.66634 2.66703 2.77609 2.47168 2.97144C2.27633 3.16679 2.16659 3.43174 2.16659 3.70801V7.87467C2.16659 8.15094 2.27633 8.41589 2.47168 8.61124C2.66703 8.80659 2.93198 8.91634 3.20825 8.91634H17.7916C18.0679 8.91634 18.3328 8.80659 18.5282 8.61124C18.7235 8.41589 18.8333 8.15094 18.8333 7.87467V3.70801C18.8333 3.43174 18.7235 3.16679 18.5282 2.97144C18.3328 2.77609 18.0679 2.66634 17.7916 2.66634H3.20825ZM5.29159 6.83301C5.01532 6.83301 4.75037 6.72326 4.55502 6.52791C4.35967 6.33256 4.24992 6.06761 4.24992 5.79134C4.24992 5.51507 4.35967 5.25012 4.55502 5.05477C4.75037 4.85942 5.01532 4.74967 5.29159 4.74967C5.56785 4.74967 5.8328 4.85942 6.02816 5.05477C6.22351 5.25012 6.33325 5.51507 6.33325 5.79134C6.33325 6.06761 6.22351 6.33256 6.02816 6.52791C5.8328 6.72326 5.56785 6.83301 5.29159 6.83301ZM8.41659 6.83301C8.14032 6.83301 7.87537 6.72326 7.68002 6.52791C7.48467 6.33256 7.37492 6.06761 7.37492 5.79134C7.37492 5.51507 7.48467 5.25012 7.68002 5.05477C7.87537 4.85942 8.14032 4.74967 8.41659 4.74967C8.69285 4.74967 8.9578 4.85942 9.15316 5.05477C9.34851 5.25012 9.45825 5.51507 9.45825 5.79134C9.45825 6.06761 9.34851 6.33256 9.15316 6.52791C8.9578 6.72326 8.69285 6.83301 8.41659 6.83301ZM8.41659 17.2497C8.14032 17.2497 7.87537 17.1399 7.68002 16.9446C7.48467 16.7492 7.37492 16.4843 7.37492 16.208C7.37492 15.9317 7.48467 15.6668 7.68002 15.4714C7.87537 15.2761 8.14032 15.1663 8.41659 15.1663C8.69285 15.1663 8.9578 15.2761 9.15316 15.4714C9.34851 15.6668 9.45825 15.9317 9.45825 16.208C9.45825 16.4843 9.34851 16.7492 9.15316 16.9446C8.9578 17.1399 8.69285 17.2497 8.41659 17.2497ZM5.29159 17.2497C5.01532 17.2497 4.75037 17.1399 4.55502 16.9446C4.35967 16.7492 4.24992 16.4843 4.24992 16.208C4.24992 15.9317 4.35967 15.6668 4.55502 15.4714C4.75037 15.2761 5.01532 15.1663 5.29159 15.1663C5.56785 15.1663 5.8328 15.2761 6.02816 15.4714C6.22351 15.6668 6.33325 15.9317 6.33325 16.208C6.33325 16.4843 6.22351 16.7492 6.02816 16.9446C5.8328 17.1399 5.56785 17.2497 5.29159 17.2497Z" fill="#1E1E1E"/>
</svg>
