<svg width="25" height="26" viewBox="0 0 25 26" fill="none" xmlns="http://www.w3.org/2000/svg">
<path d="M18.0218 11.4373H24.1656C24.2398 11.4374 24.3125 11.4585 24.3751 11.4984C24.4377 11.5382 24.4877 11.5951 24.5192 11.6623C24.5507 11.7295 24.5623 11.8043 24.5528 11.8779C24.5434 11.9515 24.5131 12.0209 24.4656 12.0779L21.3937 15.7655C21.357 15.8094 21.3112 15.8448 21.2593 15.869C21.2075 15.8933 21.1509 15.9059 21.0937 15.9059C21.0365 15.9059 20.9799 15.8933 20.9281 15.869C20.8762 15.8448 20.8304 15.8094 20.7937 15.7655L17.7218 12.0779C17.6743 12.0209 17.6441 11.9515 17.6346 11.8779C17.6251 11.8043 17.6367 11.7295 17.6682 11.6623C17.6997 11.5951 17.7497 11.5382 17.8123 11.4984C17.8749 11.4585 17.9476 11.4374 18.0218 11.4373ZM0.834326 14.5623H6.97808C7.0523 14.5623 7.12498 14.5411 7.18761 14.5013C7.25023 14.4614 7.30021 14.4046 7.33169 14.3374C7.36317 14.2701 7.37484 14.1953 7.36535 14.1217C7.35585 14.0481 7.32558 13.9787 7.27808 13.9217L4.2062 10.2342C4.16954 10.1902 4.12367 10.1549 4.07183 10.1306C4.01998 10.1063 3.96344 10.0938 3.9062 10.0938C3.84896 10.0938 3.79242 10.1063 3.74058 10.1306C3.68874 10.1549 3.64286 10.1902 3.6062 10.2342L0.534326 13.9217C0.486823 13.9787 0.456551 14.0481 0.447057 14.1217C0.437562 14.1953 0.449238 14.2701 0.480716 14.3374C0.512194 14.4046 0.562172 14.4614 0.624797 14.5013C0.687422 14.5411 0.760102 14.5623 0.834326 14.5623Z" fill="#1E1E1E"/>
<path fill-rule="evenodd" clip-rule="evenodd" d="M12.5 5.18796C10.075 5.18796 7.9062 6.29264 6.47339 8.02858C6.40941 8.11151 6.32941 8.18072 6.23814 8.23211C6.14687 8.2835 6.04621 8.31601 5.94212 8.32771C5.83804 8.33941 5.73267 8.33007 5.63227 8.30023C5.53187 8.27039 5.43849 8.22067 5.3577 8.15402C5.2769 8.08737 5.21033 8.00515 5.16194 7.91226C5.11356 7.81937 5.08435 7.71769 5.07604 7.61328C5.06774 7.50887 5.08052 7.40386 5.11362 7.30449C5.14671 7.20511 5.19945 7.11341 5.2687 7.03483C6.41275 5.64972 7.93056 4.62235 9.64161 4.07492C11.3527 3.52749 13.185 3.48303 14.9205 3.94684C16.6561 4.41065 18.222 5.36321 19.4318 6.69122C20.6417 8.01922 21.4447 9.66679 21.7453 11.438H20.1562C19.7955 9.67359 18.8365 8.08794 17.4414 6.94912C16.0464 5.81029 14.3008 5.18818 12.5 5.18796ZM4.8437 14.563C5.1395 16.0077 5.838 17.3392 6.85851 18.4038C7.87902 19.4684 9.17989 20.2225 10.6108 20.579C12.0418 20.9356 13.5444 20.88 14.9451 20.4188C16.3458 19.9575 17.5874 19.1094 18.5265 17.9723C18.5905 17.8894 18.6705 17.8202 18.7618 17.7688C18.853 17.7174 18.9537 17.6849 19.0578 17.6732C19.1619 17.6615 19.2672 17.6708 19.3676 17.7007C19.468 17.7305 19.5614 17.7802 19.6422 17.8469C19.723 17.9135 19.7896 17.9958 19.838 18.0887C19.8863 18.1815 19.9156 18.2832 19.9239 18.3876C19.9322 18.492 19.9194 18.5971 19.8863 18.6964C19.8532 18.7958 19.8004 18.8875 19.7312 18.9661C18.5872 20.3512 17.0693 21.3786 15.3583 21.926C13.6472 22.4734 11.815 22.5179 10.0794 22.0541C8.34378 21.5903 6.77793 20.6377 5.56806 19.3097C4.35819 17.9817 3.55521 16.3341 3.25464 14.563H4.8437Z" fill="#1E1E1E"/>
</svg>
