<svg width="21" height="16" viewBox="0 0 21 16" fill="none" xmlns="http://www.w3.org/2000/svg">
<path d="M2.5 13V9C2.5 9.26522 2.39464 9.51957 2.20711 9.70711C2.01957 9.89464 1.76522 10 1.5 10C1.23478 10 0.98043 9.89464 0.792893 9.70711C0.605357 9.51957 0.5 9.26522 0.5 9V7C0.5 6.73478 0.605357 6.48043 0.792893 6.29289C0.98043 6.10536 1.23478 6 1.5 6C1.76522 6 2.01957 6.10536 2.20711 6.29289C2.39464 6.48043 2.5 6.73478 2.5 7V3C2.5 3.26522 2.39464 3.51957 2.20711 3.70711C2.01957 3.89464 1.76522 4 1.5 4C1.23478 4 0.98043 3.89464 0.792893 3.70711C0.605357 3.51957 0.5 3.26522 0.5 3C0.5 2.20435 0.81607 1.44129 1.37868 0.87868C1.94129 0.31607 2.70435 0 3.5 0C3.76522 0 4.01957 0.105357 4.20711 0.292893C4.39464 0.48043 4.5 0.734784 4.5 1C4.5 1.26522 4.39464 1.51957 4.20711 1.70711C4.01957 1.89464 3.76522 2 3.5 2H7.5C7.23478 2 6.98043 1.89464 6.79289 1.70711C6.60536 1.51957 6.5 1.26522 6.5 1C6.5 0.734784 6.60536 0.48043 6.79289 0.292893C6.98043 0.105357 7.23478 0 7.5 0L10.5 0C10.7652 0 11.0196 0.105357 11.2071 0.292893C11.3946 0.48043 11.5 0.734784 11.5 1C11.5 1.26522 11.3946 1.51957 11.2071 1.70711C11.0196 1.89464 10.7652 2 10.5 2H14.5C14.2348 2 13.9804 1.89464 13.7929 1.70711C13.6054 1.51957 13.5 1.26522 13.5 1C13.5 0.734784 13.6054 0.48043 13.7929 0.292893C13.9804 0.105357 14.2348 0 14.5 0L17.5 0C18.2956 0 19.0587 0.31607 19.6213 0.87868C20.1839 1.44129 20.5 2.20435 20.5 3V13C20.5 13.7956 20.1839 14.5587 19.6213 15.1213C19.0587 15.6839 18.2956 16 17.5 16H3.5C2.70435 16 1.94129 15.6839 1.37868 15.1213C0.81607 14.5587 0.5 13.7956 0.5 13C0.5 12.7348 0.605357 12.4804 0.792893 12.2929C0.98043 12.1054 1.23478 12 1.5 12C1.76522 12 2.01957 12.1054 2.20711 12.2929C2.39464 12.4804 2.5 12.7348 2.5 13ZM18.5 8.503V3C18.5 2.73478 18.3946 2.48043 18.2071 2.29289C18.0196 2.10536 17.7652 2 17.5 2H3.5C3.23478 2 2.98043 2.10536 2.79289 2.29289C2.60536 2.48043 2.5 2.73478 2.5 3V13C2.5 13.2652 2.60536 13.5196 2.79289 13.7071C2.98043 13.8946 3.23478 14 3.5 14H7.004L11.394 6.678C11.6283 6.28743 11.9484 5.95533 12.3302 5.70689C12.7119 5.45844 13.1452 5.30018 13.5972 5.24409C14.0492 5.188 14.508 5.23556 14.9389 5.38316C15.3697 5.53077 15.7613 5.77454 16.084 6.096L18.5 8.503ZM18.5 11.326L14.672 7.512C14.5644 7.40496 14.4338 7.32382 14.2902 7.27473C14.1465 7.22564 13.9936 7.2099 13.843 7.22869C13.6924 7.24748 13.548 7.30032 13.4208 7.38319C13.2937 7.46606 13.187 7.5768 13.109 7.707L9.336 14H17.5C17.7652 14 18.0196 13.8946 18.2071 13.7071C18.3946 13.5196 18.5 13.2652 18.5 13V11.326ZM6.5 9C5.70435 9 4.94129 8.68393 4.37868 8.12132C3.81607 7.55871 3.5 6.79565 3.5 6C3.5 5.20435 3.81607 4.44129 4.37868 3.87868C4.94129 3.31607 5.70435 3 6.5 3C7.29565 3 8.05871 3.31607 8.62132 3.87868C9.18393 4.44129 9.5 5.20435 9.5 6C9.5 6.79565 9.18393 7.55871 8.62132 8.12132C8.05871 8.68393 7.29565 9 6.5 9ZM6.5 7C6.76522 7 7.01957 6.89464 7.20711 6.70711C7.39464 6.51957 7.5 6.26522 7.5 6C7.5 5.73478 7.39464 5.48043 7.20711 5.29289C7.01957 5.10536 6.76522 5 6.5 5C6.23478 5 5.98043 5.10536 5.79289 5.29289C5.60536 5.48043 5.5 5.73478 5.5 6C5.5 6.26522 5.60536 6.51957 5.79289 6.70711C5.98043 6.89464 6.23478 7 6.5 7Z" fill="#1E1E1E"/>
</svg>
