<svg width="25" height="24" viewBox="0 0 25 24" fill="none" xmlns="http://www.w3.org/2000/svg">
<path fill-rule="evenodd" clip-rule="evenodd" d="M9.38753 8.88766C9.10359 9.1716 9.10351 9.63215 9.38769 9.91634L19.8339 20.3625C20.1181 20.6467 20.5786 20.6466 20.8625 20.3627C21.1465 20.0787 21.1466 19.6182 20.8624 19.334L10.4162 8.88783C10.132 8.60364 9.67146 8.60373 9.38753 8.88766ZM8.32703 10.977C7.45722 10.1072 7.45699 8.69688 8.32687 7.827C9.19675 6.95712 10.607 6.95735 11.4769 7.82717L21.923 18.2733C22.7929 19.1432 22.7931 20.5535 21.9232 21.4233C21.0533 22.2932 19.643 22.293 18.7732 21.4232L8.32703 10.977Z" fill="#1E1E1E"/>
<path d="M8.86162 8.36156C8.72387 8.49929 8.6146 8.6628 8.54005 8.84276C8.4655 9.02272 8.42712 9.2156 8.42712 9.41039C8.42712 9.60518 8.4655 9.79806 8.54005 9.97802C8.6146 10.158 8.72387 10.3215 8.86162 10.4592L10.9649 12.5625L13.0626 10.4648L10.9593 8.36156C10.8216 8.22381 10.658 8.11454 10.4781 8.03999C10.2981 7.96543 10.1052 7.92706 9.91045 7.92706C9.71566 7.92706 9.52278 7.96543 9.34282 8.03999C9.16286 8.11454 8.99935 8.22381 8.86162 8.36156Z" fill="#1E1E1E"/>
<path fill-rule="evenodd" clip-rule="evenodd" d="M2 9C2 8.58579 2.33579 8.25 2.75 8.25H5C5.41421 8.25 5.75 8.58579 5.75 9C5.75 9.41421 5.41421 9.75 5 9.75H2.75C2.33579 9.75 2 9.41421 2 9Z" fill="#1E1E1E"/>
<path fill-rule="evenodd" clip-rule="evenodd" d="M4.19684 3.69684C4.48974 3.40395 4.96461 3.40395 5.2575 3.69684L6.84844 5.28778C7.14133 5.58067 7.14133 6.05555 6.84844 6.34844C6.55555 6.64133 6.08067 6.64133 5.78778 6.34844L4.19684 4.7575C3.90395 4.46461 3.90395 3.98974 4.19684 3.69684Z" fill="#1E1E1E"/>
<path fill-rule="evenodd" clip-rule="evenodd" d="M9.5 1.5C9.91421 1.5 10.25 1.83579 10.25 2.25V4.5C10.25 4.91421 9.91421 5.25 9.5 5.25C9.08579 5.25 8.75 4.91421 8.75 4.5V2.25C8.75 1.83579 9.08579 1.5 9.5 1.5Z" fill="#1E1E1E"/>
<path fill-rule="evenodd" clip-rule="evenodd" d="M14.8032 3.69684C15.096 3.98974 15.096 4.46461 14.8032 4.7575L13.2122 6.34844C12.9193 6.64133 12.4444 6.64133 12.1516 6.34844C11.8587 6.05555 11.8587 5.58067 12.1516 5.28778L13.7425 3.69684C14.0354 3.40395 14.5103 3.40395 14.8032 3.69684Z" fill="#1E1E1E"/>
<path fill-rule="evenodd" clip-rule="evenodd" d="M6.84844 11.6516C7.14133 11.9444 7.14133 12.4193 6.84844 12.7122L5.2575 14.3032C4.96461 14.596 4.48974 14.596 4.19684 14.3032C3.90395 14.0103 3.90395 13.5354 4.19684 13.2425L5.78778 11.6516C6.08067 11.3587 6.55555 11.3587 6.84844 11.6516Z" fill="#1E1E1E"/>
</svg>
