<svg width="25" height="26" viewBox="0 0 25 26" fill="none" xmlns="http://www.w3.org/2000/svg">
<path d="M4.16667 14.0417H10.4167C10.9896 14.0417 11.4583 13.5729 11.4583 13V4.66667C11.4583 4.09375 10.9896 3.625 10.4167 3.625H4.16667C3.59375 3.625 3.125 4.09375 3.125 4.66667V13C3.125 13.5729 3.59375 14.0417 4.16667 14.0417ZM4.16667 22.375H10.4167C10.9896 22.375 11.4583 21.9062 11.4583 21.3333V17.1667C11.4583 16.5937 10.9896 16.125 10.4167 16.125H4.16667C3.59375 16.125 3.125 16.5937 3.125 17.1667V21.3333C3.125 21.9062 3.59375 22.375 4.16667 22.375ZM14.5833 22.375H20.8333C21.4062 22.375 21.875 21.9062 21.875 21.3333V13C21.875 12.4271 21.4062 11.9583 20.8333 11.9583H14.5833C14.0104 11.9583 13.5417 12.4271 13.5417 13V21.3333C13.5417 21.9062 14.0104 22.375 14.5833 22.375ZM13.5417 4.66667V8.83333C13.5417 9.40625 14.0104 9.875 14.5833 9.875H20.8333C21.4062 9.875 21.875 9.40625 21.875 8.83333V4.66667C21.875 4.09375 21.4062 3.625 20.8333 3.625H14.5833C14.0104 3.625 13.5417 4.09375 13.5417 4.66667Z" fill="#1E1E1E"/>
</svg>
