<svg width="25" height="26" viewBox="0 0 25 26" fill="none" xmlns="http://www.w3.org/2000/svg">
<g clip-path="url(#clip0_180_299)">
<path d="M14.8438 0.5C15.051 0.5 15.2497 0.58231 15.3962 0.728823C15.5427 0.875336 15.625 1.07405 15.625 1.28125C15.625 1.48845 15.7073 1.68716 15.8538 1.83368C16.0003 1.98019 16.199 2.0625 16.4062 2.0625C16.6135 2.0625 16.8122 2.14481 16.9587 2.29132C17.1052 2.43784 17.1875 2.63655 17.1875 2.84375V3.625C17.1875 3.8322 17.1052 4.03091 16.9587 4.17743C16.8122 4.32394 16.6135 4.40625 16.4062 4.40625H8.59375C8.38655 4.40625 8.18784 4.32394 8.04132 4.17743C7.89481 4.03091 7.8125 3.8322 7.8125 3.625V2.84375C7.8125 2.63655 7.89481 2.43784 8.04132 2.29132C8.18784 2.14481 8.38655 2.0625 8.59375 2.0625C8.80095 2.0625 8.99966 1.98019 9.14618 1.83368C9.29269 1.68716 9.375 1.48845 9.375 1.28125C9.375 1.07405 9.45731 0.875336 9.60382 0.728823C9.75034 0.58231 9.94905 0.5 10.1562 0.5H14.8438Z" fill="#1E1E1E"/>
<path d="M4.6875 4.40625C4.6875 4.19905 4.76981 4.00034 4.91632 3.85382C5.06284 3.70731 5.26155 3.625 5.46875 3.625H6.25C6.4572 3.625 6.65591 3.54269 6.80243 3.39618C6.94894 3.24966 7.03125 3.05095 7.03125 2.84375C7.03125 2.63655 6.94894 2.43784 6.80243 2.29132C6.65591 2.14481 6.4572 2.0625 6.25 2.0625H5.46875C4.84715 2.0625 4.25101 2.30943 3.81147 2.74897C3.37193 3.18851 3.125 3.78465 3.125 4.40625V23.1562C3.125 23.7779 3.37193 24.374 3.81147 24.8135C4.25101 25.2531 4.84715 25.5 5.46875 25.5H19.5312C20.1529 25.5 20.749 25.2531 21.1885 24.8135C21.6281 24.374 21.875 23.7779 21.875 23.1562V4.40625C21.875 3.78465 21.6281 3.18851 21.1885 2.74897C20.749 2.30943 20.1529 2.0625 19.5312 2.0625H18.75C18.5428 2.0625 18.3441 2.14481 18.1976 2.29132C18.0511 2.43784 17.9688 2.63655 17.9688 2.84375C17.9688 3.05095 18.0511 3.24966 18.1976 3.39618C18.3441 3.54269 18.5428 3.625 18.75 3.625H19.5312C19.7385 3.625 19.9372 3.70731 20.0837 3.85382C20.2302 4.00034 20.3125 4.19905 20.3125 4.40625V23.1562C20.3125 23.3635 20.2302 23.5622 20.0837 23.7087C19.9372 23.8552 19.7385 23.9375 19.5312 23.9375H5.46875C5.26155 23.9375 5.06284 23.8552 4.91632 23.7087C4.76981 23.5622 4.6875 23.3635 4.6875 23.1562V4.40625Z" fill="#1E1E1E"/>
<path d="M15.625 11.4375C15.625 11.0231 15.7896 10.6257 16.0826 10.3326C16.3757 10.0396 16.7731 9.875 17.1875 9.875C17.6019 9.875 17.9993 10.0396 18.2924 10.3326C18.5854 10.6257 18.75 11.0231 18.75 11.4375V19.25C18.75 19.6644 18.5854 20.0618 18.2924 20.3549C17.9993 20.6479 17.6019 20.8125 17.1875 20.8125C16.7731 20.8125 16.3757 20.6479 16.0826 20.3549C15.7896 20.0618 15.625 19.6644 15.625 19.25V11.4375ZM6.25 17.6875C6.25 17.2731 6.41462 16.8757 6.70765 16.5826C7.00067 16.2896 7.3981 16.125 7.8125 16.125C8.2269 16.125 8.62433 16.2896 8.91735 16.5826C9.21038 16.8757 9.375 17.2731 9.375 17.6875V19.25C9.375 19.6644 9.21038 20.0618 8.91735 20.3549C8.62433 20.6479 8.2269 20.8125 7.8125 20.8125C7.3981 20.8125 7.00067 20.6479 6.70765 20.3549C6.41462 20.0618 6.25 19.6644 6.25 19.25V17.6875ZM12.5 13C12.0856 13 11.6882 13.1646 11.3951 13.4576C11.1021 13.7507 10.9375 14.1481 10.9375 14.5625V19.25C10.9375 19.6644 11.1021 20.0618 11.3951 20.3549C11.6882 20.6479 12.0856 20.8125 12.5 20.8125C12.9144 20.8125 13.3118 20.6479 13.6049 20.3549C13.8979 20.0618 14.0625 19.6644 14.0625 19.25V14.5625C14.0625 14.1481 13.8979 13.7507 13.6049 13.4576C13.3118 13.1646 12.9144 13 12.5 13Z" fill="#1E1E1E"/>
</g>
<defs>
<clipPath id="clip0_180_299">
<rect width="25" height="25" fill="white" transform="translate(0 0.5)"/>
</clipPath>
</defs>
</svg>
