<svg width="25" height="26" viewBox="0 0 25 26" fill="none" xmlns="http://www.w3.org/2000/svg">
<g clip-path="url(#clip0_180_373)">
<path d="M12.5 8.3125C12.8078 8.3125 13.1126 8.25188 13.3969 8.13409C13.6813 8.01631 13.9396 7.84367 14.1573 7.62603C14.3749 7.40839 14.5476 7.15002 14.6653 6.86566C14.7831 6.58131 14.8438 6.27654 14.8438 5.96875C14.8438 5.66096 14.7831 5.35619 14.6653 5.07184C14.5476 4.78748 14.3749 4.52911 14.1573 4.31147C13.9396 4.09383 13.6813 3.92119 13.3969 3.80341C13.1126 3.68562 12.8078 3.625 12.5 3.625C11.8784 3.625 11.2823 3.87193 10.8427 4.31147C10.4032 4.75101 10.1562 5.34715 10.1562 5.96875C10.1562 6.59035 10.4032 7.18649 10.8427 7.62603C11.2823 8.06557 11.8784 8.3125 12.5 8.3125ZM18.75 13C19.3716 13 19.9677 12.7531 20.4073 12.3135C20.8468 11.874 21.0938 11.2779 21.0938 10.6562C21.0938 10.0346 20.8468 9.43851 20.4073 8.99897C19.9677 8.55943 19.3716 8.3125 18.75 8.3125C18.1284 8.3125 17.5323 8.55943 17.0927 8.99897C16.6532 9.43851 16.4062 10.0346 16.4062 10.6562C16.4062 11.2779 16.6532 11.874 17.0927 12.3135C17.5323 12.7531 18.1284 13 18.75 13ZM8.59375 11.4375C8.59375 12.0591 8.34682 12.6552 7.90728 13.0948C7.46774 13.5343 6.8716 13.7812 6.25 13.7812C5.6284 13.7812 5.03226 13.5343 4.59272 13.0948C4.15318 12.6552 3.90625 12.0591 3.90625 11.4375C3.90625 10.8159 4.15318 10.2198 4.59272 9.78022C5.03226 9.34068 5.6284 9.09375 6.25 9.09375C6.8716 9.09375 7.46774 9.34068 7.90728 9.78022C8.34682 10.2198 8.59375 10.8159 8.59375 11.4375ZM9.375 20.8125C9.9966 20.8125 10.5927 20.5656 11.0323 20.126C11.4718 19.6865 11.7188 19.0904 11.7188 18.4688C11.7188 17.8471 11.4718 17.251 11.0323 16.8115C10.5927 16.3719 9.9966 16.125 9.375 16.125C8.7534 16.125 8.15726 16.3719 7.71772 16.8115C7.27818 17.251 7.03125 17.8471 7.03125 18.4688C7.03125 19.0904 7.27818 19.6865 7.71772 20.126C8.15726 20.5656 8.7534 20.8125 9.375 20.8125Z" fill="#1E1E1E"/>
<path d="M25 13C25 17.9219 22.0844 17.0391 19.4266 16.2344C17.8438 15.7547 16.3516 15.3016 15.625 16.125C14.6828 17.1922 14.8828 18.9672 15.0766 20.6875C15.3531 23.1484 15.6188 25.5 12.5 25.5C10.0277 25.5 7.61099 24.7669 5.55538 23.3934C3.49976 22.0199 1.89761 20.0676 0.951512 17.7836C0.00541601 15.4995 -0.242126 12.9861 0.24019 10.5614C0.722505 8.13662 1.91301 5.90933 3.66117 4.16117C5.40933 2.41301 7.63662 1.2225 10.0614 0.74019C12.4861 0.257874 14.9995 0.505416 17.2836 1.45151C19.5676 2.39761 21.5199 3.99976 22.8934 6.05538C24.2669 8.11099 25 10.5277 25 13ZM12.5 23.9375C13.4547 23.9375 13.5219 23.6703 13.5234 23.6625C13.6453 23.4344 13.7172 22.9375 13.6328 21.9141C13.6109 21.6516 13.575 21.3359 13.5375 20.9906C13.4563 20.2656 13.3625 19.4203 13.3531 18.7063C13.3375 17.6016 13.4828 16.1906 14.4531 15.0906C15.0297 14.4391 15.7734 14.1875 16.4406 14.125C17.0719 14.0656 17.7094 14.1656 18.2531 14.2875C18.7891 14.4078 19.35 14.5781 19.8547 14.7313L19.8984 14.7438C20.4391 14.9078 20.9266 15.0547 21.3875 15.1594C22.4078 15.3906 22.8 15.2891 22.9359 15.1969C22.9953 15.1563 23.4375 14.8141 23.4375 13C23.4375 10.8368 22.796 8.72212 21.5942 6.92346C20.3924 5.12479 18.6842 3.72291 16.6856 2.89507C14.687 2.06724 12.4879 1.85064 10.3662 2.27267C8.24454 2.69469 6.29566 3.73639 4.76603 5.26603C3.23639 6.79566 2.19469 8.74454 1.77267 10.8662C1.35064 12.9879 1.56724 15.187 2.39507 17.1856C3.22291 19.1842 4.62479 20.8924 6.42346 22.0942C8.22212 23.296 10.3368 23.9375 12.5 23.9375Z" fill="#1E1E1E"/>
</g>
<defs>
<clipPath id="clip0_180_373">
<rect width="25" height="25" fill="white" transform="translate(0 0.5)"/>
</clipPath>
</defs>
</svg>
