<svg width="19" height="18" viewBox="0 0 19 18" fill="none" xmlns="http://www.w3.org/2000/svg">
<path d="M3.25 0.25C1.86929 0.25 0.75 1.36929 0.75 2.75V5.25C0.75 6.63071 1.86929 7.75 3.25 7.75H5.75C7.13071 7.75 8.25 6.63071 8.25 5.25V2.75C8.25 1.36929 7.13071 0.25 5.75 0.25H3.25Z" fill="#1E1E1E"/>
<path d="M3.25 10.25C1.86929 10.25 0.75 11.3693 0.75 12.75V15.25C0.75 16.6307 1.86929 17.75 3.25 17.75H5.75C7.13071 17.75 8.25 16.6307 8.25 15.25V12.75C8.25 11.3693 7.13071 10.25 5.75 10.25H3.25Z" fill="#1E1E1E"/>
<path d="M10.75 2.75C10.75 1.36929 11.8693 0.25 13.25 0.25H15.75C17.1307 0.25 18.25 1.36929 18.25 2.75V5.25C18.25 6.63071 17.1307 7.75 15.75 7.75H13.25C11.8693 7.75 10.75 6.63071 10.75 5.25V2.75Z" fill="#1E1E1E"/>
<path d="M14.5 10.25C15.1904 10.25 15.75 10.8096 15.75 11.5V12.75H17C17.6904 12.75 18.25 13.3096 18.25 14C18.25 14.6904 17.6904 15.25 17 15.25H15.75V16.5C15.75 17.1904 15.1904 17.75 14.5 17.75C13.8096 17.75 13.25 17.1904 13.25 16.5V15.25H12C11.3096 15.25 10.75 14.6904 10.75 14C10.75 13.3096 11.3096 12.75 12 12.75H13.25V11.5C13.25 10.8096 13.8096 10.25 14.5 10.25Z" fill="#1E1E1E"/>
</svg>
