<svg width="25" height="26" viewBox="0 0 25 26" fill="none" xmlns="http://www.w3.org/2000/svg">
<g clip-path="url(#clip0_180_318)">
<path d="M8.59375 11.4375C8.38655 11.4375 8.18784 11.5198 8.04132 11.6663C7.89481 11.8128 7.8125 12.0115 7.8125 12.2188C7.8125 12.426 7.89481 12.6247 8.04132 12.7712C8.18784 12.9177 8.38655 13 8.59375 13H16.4062C16.6135 13 16.8122 12.9177 16.9587 12.7712C17.1052 12.6247 17.1875 12.426 17.1875 12.2188C17.1875 12.0115 17.1052 11.8128 16.9587 11.6663C16.8122 11.5198 16.6135 11.4375 16.4062 11.4375H8.59375ZM7.8125 15.3438C7.8125 15.1365 7.89481 14.9378 8.04132 14.7913C8.18784 14.6448 8.38655 14.5625 8.59375 14.5625H16.4062C16.6135 14.5625 16.8122 14.6448 16.9587 14.7913C17.1052 14.9378 17.1875 15.1365 17.1875 15.3438C17.1875 15.551 17.1052 15.7497 16.9587 15.8962C16.8122 16.0427 16.6135 16.125 16.4062 16.125H8.59375C8.38655 16.125 8.18784 16.0427 8.04132 15.8962C7.89481 15.7497 7.8125 15.551 7.8125 15.3438ZM7.8125 18.4688C7.8125 18.2615 7.89481 18.0628 8.04132 17.9163C8.18784 17.7698 8.38655 17.6875 8.59375 17.6875H11.7188C11.926 17.6875 12.1247 17.7698 12.2712 17.9163C12.4177 18.0628 12.5 18.2615 12.5 18.4688C12.5 18.676 12.4177 18.8747 12.2712 19.0212C12.1247 19.1677 11.926 19.25 11.7188 19.25H8.59375C8.38655 19.25 8.18784 19.1677 8.04132 19.0212C7.89481 18.8747 7.8125 18.676 7.8125 18.4688Z" fill="#1E1E1E"/>
<path d="M14.8438 0.5H6.25C5.4212 0.5 4.62634 0.82924 4.04029 1.41529C3.45424 2.00134 3.125 2.7962 3.125 3.625V22.375C3.125 23.2038 3.45424 23.9987 4.04029 24.5847C4.62634 25.1708 5.4212 25.5 6.25 25.5H18.75C19.5788 25.5 20.3737 25.1708 20.9597 24.5847C21.5458 23.9987 21.875 23.2038 21.875 22.375V7.53125L14.8438 0.5ZM14.8438 2.0625V5.1875C14.8438 5.8091 15.0907 6.40524 15.5302 6.84478C15.9698 7.28432 16.5659 7.53125 17.1875 7.53125H20.3125V22.375C20.3125 22.7894 20.1479 23.1868 19.8549 23.4799C19.5618 23.7729 19.1644 23.9375 18.75 23.9375H6.25C5.8356 23.9375 5.43817 23.7729 5.14515 23.4799C4.85212 23.1868 4.6875 22.7894 4.6875 22.375V3.625C4.6875 3.2106 4.85212 2.81317 5.14515 2.52015C5.43817 2.22712 5.8356 2.0625 6.25 2.0625H14.8438Z" fill="#1E1E1E"/>
</g>
<defs>
<clipPath id="clip0_180_318">
<rect width="25" height="25" fill="white" transform="translate(0 0.5)"/>
</clipPath>
</defs>
</svg>
