<svg width="14" height="15" viewBox="0 0 14 15" fill="none" xmlns="http://www.w3.org/2000/svg">
<path d="M11.4535 0.75C11.1656 0.75 10.8777 0.859934 10.658 1.07959L9.30012 2.43751L12.1126 5.25003L13.4706 3.89211C13.9099 3.4528 13.9099 2.7406 13.4706 2.30128L12.2489 1.07959C12.0292 0.859934 11.7413 0.75 11.4535 0.75ZM8.17511 3.56252L1.57118 10.1665C1.57118 10.1665 2.08742 10.1202 2.2798 10.3126C2.47218 10.505 2.31381 11.7638 2.55007 12.0001C2.78632 12.2363 4.03727 12.07 4.21671 12.2495C4.39614 12.4289 4.3837 12.979 4.3837 12.979L10.9876 6.37504L8.17511 3.56252ZM0.862553 12.0001L0.331909 13.503C0.311049 13.5623 0.300279 13.6247 0.300049 13.6876C0.300049 13.8368 0.359312 13.9799 0.464803 14.0854C0.570293 14.1908 0.713368 14.2501 0.862553 14.2501C0.925425 14.2499 0.987814 14.2391 1.04712 14.2182C1.04896 14.2175 1.05079 14.2168 1.05262 14.216L1.0669 14.2117C1.068 14.2109 1.0691 14.2102 1.0702 14.2095L2.55007 13.6876L1.70631 12.8438L0.862553 12.0001Z" fill="#064089"/>
</svg>
