<svg width="25" height="26" viewBox="0 0 25 26" fill="none" xmlns="http://www.w3.org/2000/svg">
<path d="M9.375 7.375V9.25C9.375 9.59518 9.09518 9.875 8.75 9.875H6.875C6.52982 9.875 6.25 9.59518 6.25 9.25V7.375C6.25 7.02982 6.52982 6.75 6.875 6.75H8.75C9.09518 6.75 9.375 7.02982 9.375 7.375Z" stroke="#1E1E1E" stroke-width="1.5" stroke-linecap="round" stroke-linejoin="round"/>
<path d="M6.25 13H9.375" stroke="#1E1E1E" stroke-width="1.5" stroke-linecap="round" stroke-linejoin="round"/>
<path d="M15.625 13V16.125" stroke="#1E1E1E" stroke-width="1.5" stroke-linecap="round" stroke-linejoin="round"/>
<path d="M12.5 19.25H15.625" stroke="#1E1E1E" stroke-width="1.5" stroke-linecap="round" stroke-linejoin="round"/>
<path d="M12.5 13.0111L12.51 13" stroke="#1E1E1E" stroke-width="1.5" stroke-linecap="round" stroke-linejoin="round"/>
<path d="M18.75 13.0111L18.76 13" stroke="#1E1E1E" stroke-width="1.5" stroke-linecap="round" stroke-linejoin="round"/>
<path d="M12.5 16.1361L12.51 16.125" stroke="#1E1E1E" stroke-width="1.5" stroke-linecap="round" stroke-linejoin="round"/>
<path d="M18.75 16.1361L18.76 16.125" stroke="#1E1E1E" stroke-width="1.5" stroke-linecap="round" stroke-linejoin="round"/>
<path d="M18.75 19.2611L18.76 19.25" stroke="#1E1E1E" stroke-width="1.5" stroke-linecap="round" stroke-linejoin="round"/>
<path d="M12.5 9.88611L12.51 9.875" stroke="#1E1E1E" stroke-width="1.5" stroke-linecap="round" stroke-linejoin="round"/>
<path d="M12.5 6.76111L12.51 6.75" stroke="#1E1E1E" stroke-width="1.5" stroke-linecap="round" stroke-linejoin="round"/>
<path d="M9.375 16.75V18.625C9.375 18.9702 9.09518 19.25 8.75 19.25H6.875C6.52982 19.25 6.25 18.9702 6.25 18.625V16.75C6.25 16.4048 6.52982 16.125 6.875 16.125H8.75C9.09518 16.125 9.375 16.4048 9.375 16.75Z" stroke="#1E1E1E" stroke-width="1.5" stroke-linecap="round" stroke-linejoin="round"/>
<path d="M18.75 7.375V9.25C18.75 9.59518 18.4702 9.875 18.125 9.875H16.25C15.9048 9.875 15.625 9.59518 15.625 9.25V7.375C15.625 7.02982 15.9048 6.75 16.25 6.75H18.125C18.4702 6.75 18.75 7.02982 18.75 7.375Z" stroke="#1E1E1E" stroke-width="1.5" stroke-linecap="round" stroke-linejoin="round"/>
<path d="M18.75 3.625H21.875V6.75" stroke="#1E1E1E" stroke-width="1.5" stroke-linecap="round" stroke-linejoin="round"/>
<path d="M18.75 22.375H21.875V19.25" stroke="#1E1E1E" stroke-width="1.5" stroke-linecap="round" stroke-linejoin="round"/>
<path d="M6.25 3.625H3.125V6.75" stroke="#1E1E1E" stroke-width="1.5" stroke-linecap="round" stroke-linejoin="round"/>
<path d="M6.25 22.375H3.125V19.25" stroke="#1E1E1E" stroke-width="1.5" stroke-linecap="round" stroke-linejoin="round"/>
</svg>
