<svg width="25" height="26" viewBox="0 0 25 26" fill="none" xmlns="http://www.w3.org/2000/svg">
<path fill-rule="evenodd" clip-rule="evenodd" d="M4.6875 12.9996C4.68815 14.6882 5.23583 16.331 6.2485 17.6821C7.26117 19.0333 8.68433 20.0199 10.3048 20.4944C11.9253 20.9688 13.6559 20.9055 15.2373 20.3139C16.8188 19.7223 18.166 18.6342 19.0772 17.2127C19.9885 15.7911 20.4146 14.1127 20.2918 12.4286C20.1691 10.7446 19.504 9.14564 18.3963 7.87128C17.2885 6.59693 15.7977 5.71576 14.1472 5.35976C12.4966 5.00375 10.7752 5.19208 9.24062 5.89652C9.05406 5.9732 8.84506 5.97474 8.65738 5.90082C8.4697 5.82691 8.31788 5.68327 8.2337 5.49997C8.14951 5.31666 8.13949 5.1079 8.20573 4.91737C8.27196 4.72685 8.40933 4.56933 8.58906 4.47777C10.4306 3.63248 12.4965 3.40658 14.4772 3.83391C16.4579 4.26125 18.2468 5.31882 19.576 6.8482C20.9052 8.37759 21.7031 10.2965 21.8503 12.3174C21.9974 14.3383 21.4858 16.3525 20.3921 18.0583C19.2984 19.7641 17.6814 21.0696 15.7835 21.7792C13.8856 22.4889 11.8088 22.5646 9.86424 21.9949C7.91969 21.4252 6.21205 20.2409 4.99711 18.6192C3.78218 16.9976 3.12534 15.0259 3.125 12.9996H4.6875Z" fill="#1E1E1E"/>
<path d="M6.97808 12.9998H0.834326C0.760102 12.9998 0.687422 12.9786 0.624797 12.9388C0.562172 12.8989 0.512194 12.8421 0.480716 12.7749C0.449238 12.7076 0.437562 12.6328 0.447057 12.5592C0.456551 12.4856 0.486823 12.4162 0.534326 12.3592L3.6062 8.6717C3.64286 8.62774 3.68874 8.59237 3.74058 8.5681C3.79242 8.54383 3.84896 8.53125 3.9062 8.53125C3.96344 8.53125 4.01998 8.54383 4.07183 8.5681C4.12367 8.59237 4.16954 8.62774 4.2062 8.6717L7.27808 12.3592C7.32558 12.4162 7.35585 12.4856 7.36535 12.5592C7.37484 12.6328 7.36317 12.7076 7.33169 12.7749C7.30021 12.8421 7.25023 12.8989 7.18761 12.9388C7.12498 12.9786 7.0523 12.9998 6.97808 12.9998Z" fill="#1E1E1E"/>
</svg>
