<svg width="25" height="25" viewBox="0 0 25 25" fill="none" xmlns="http://www.w3.org/2000/svg">
<path d="M9.375 6.875V8.75C9.375 9.09518 9.09518 9.375 8.75 9.375H6.875C6.52982 9.375 6.25 9.09518 6.25 8.75V6.875C6.25 6.52982 6.52982 6.25 6.875 6.25H8.75C9.09518 6.25 9.375 6.52982 9.375 6.875Z" stroke="#88A44F" stroke-width="1.5" stroke-linecap="round" stroke-linejoin="round"/>
<path d="M6.25 12.5H9.375" stroke="#88A44F" stroke-width="1.5" stroke-linecap="round" stroke-linejoin="round"/>
<path d="M15.625 12.5V15.625" stroke="#88A44F" stroke-width="1.5" stroke-linecap="round" stroke-linejoin="round"/>
<path d="M12.5 18.75H15.625" stroke="#88A44F" stroke-width="1.5" stroke-linecap="round" stroke-linejoin="round"/>
<path d="M12.5 12.5111L12.51 12.5" stroke="#88A44F" stroke-width="1.5" stroke-linecap="round" stroke-linejoin="round"/>
<path d="M18.75 12.5111L18.76 12.5" stroke="#88A44F" stroke-width="1.5" stroke-linecap="round" stroke-linejoin="round"/>
<path d="M12.5 15.6361L12.51 15.625" stroke="#88A44F" stroke-width="1.5" stroke-linecap="round" stroke-linejoin="round"/>
<path d="M18.75 15.6361L18.76 15.625" stroke="#88A44F" stroke-width="1.5" stroke-linecap="round" stroke-linejoin="round"/>
<path d="M18.75 18.7611L18.76 18.75" stroke="#88A44F" stroke-width="1.5" stroke-linecap="round" stroke-linejoin="round"/>
<path d="M12.5 9.38611L12.51 9.375" stroke="#88A44F" stroke-width="1.5" stroke-linecap="round" stroke-linejoin="round"/>
<path d="M12.5 6.26111L12.51 6.25" stroke="#88A44F" stroke-width="1.5" stroke-linecap="round" stroke-linejoin="round"/>
<path d="M9.375 16.25V18.125C9.375 18.4702 9.09518 18.75 8.75 18.75H6.875C6.52982 18.75 6.25 18.4702 6.25 18.125V16.25C6.25 15.9048 6.52982 15.625 6.875 15.625H8.75C9.09518 15.625 9.375 15.9048 9.375 16.25Z" stroke="#88A44F" stroke-width="1.5" stroke-linecap="round" stroke-linejoin="round"/>
<path d="M18.75 6.875V8.75C18.75 9.09518 18.4702 9.375 18.125 9.375H16.25C15.9048 9.375 15.625 9.09518 15.625 8.75V6.875C15.625 6.52982 15.9048 6.25 16.25 6.25H18.125C18.4702 6.25 18.75 6.52982 18.75 6.875Z" stroke="#88A44F" stroke-width="1.5" stroke-linecap="round" stroke-linejoin="round"/>
<path d="M18.75 3.125H21.875V6.25" stroke="#88A44F" stroke-width="1.5" stroke-linecap="round" stroke-linejoin="round"/>
<path d="M18.75 21.875H21.875V18.75" stroke="#88A44F" stroke-width="1.5" stroke-linecap="round" stroke-linejoin="round"/>
<path d="M6.25 3.125H3.125V6.25" stroke="#88A44F" stroke-width="1.5" stroke-linecap="round" stroke-linejoin="round"/>
<path d="M6.25 21.875H3.125V18.75" stroke="#88A44F" stroke-width="1.5" stroke-linecap="round" stroke-linejoin="round"/>
</svg>
