<svg width="26" height="25" viewBox="0 0 26 25" fill="none" xmlns="http://www.w3.org/2000/svg">
<path d="M10.042 6.875V8.75C10.042 9.09518 9.76217 9.375 9.41699 9.375H7.54199C7.19681 9.375 6.91699 9.09518 6.91699 8.75V6.875C6.91699 6.52982 7.19681 6.25 7.54199 6.25H9.41699C9.76217 6.25 10.042 6.52982 10.042 6.875Z" stroke="#FF9D5C" stroke-width="1.5" stroke-linecap="round" stroke-linejoin="round"/>
<path d="M6.91699 12.5H10.042" stroke="#FF9D5C" stroke-width="1.5" stroke-linecap="round" stroke-linejoin="round"/>
<path d="M16.292 12.5V15.625" stroke="#FF9D5C" stroke-width="1.5" stroke-linecap="round" stroke-linejoin="round"/>
<path d="M13.167 18.75H16.292" stroke="#FF9D5C" stroke-width="1.5" stroke-linecap="round" stroke-linejoin="round"/>
<path d="M13.167 12.5111L13.177 12.5" stroke="#FF9D5C" stroke-width="1.5" stroke-linecap="round" stroke-linejoin="round"/>
<path d="M19.417 12.5111L19.427 12.5" stroke="#FF9D5C" stroke-width="1.5" stroke-linecap="round" stroke-linejoin="round"/>
<path d="M13.167 15.6361L13.177 15.625" stroke="#FF9D5C" stroke-width="1.5" stroke-linecap="round" stroke-linejoin="round"/>
<path d="M19.417 15.6361L19.427 15.625" stroke="#FF9D5C" stroke-width="1.5" stroke-linecap="round" stroke-linejoin="round"/>
<path d="M19.417 18.7611L19.427 18.75" stroke="#FF9D5C" stroke-width="1.5" stroke-linecap="round" stroke-linejoin="round"/>
<path d="M13.167 9.38611L13.177 9.375" stroke="#FF9D5C" stroke-width="1.5" stroke-linecap="round" stroke-linejoin="round"/>
<path d="M13.167 6.26111L13.177 6.25" stroke="#FF9D5C" stroke-width="1.5" stroke-linecap="round" stroke-linejoin="round"/>
<path d="M10.042 16.25V18.125C10.042 18.4702 9.76217 18.75 9.41699 18.75H7.54199C7.19681 18.75 6.91699 18.4702 6.91699 18.125V16.25C6.91699 15.9048 7.19681 15.625 7.54199 15.625H9.41699C9.76217 15.625 10.042 15.9048 10.042 16.25Z" stroke="#FF9D5C" stroke-width="1.5" stroke-linecap="round" stroke-linejoin="round"/>
<path d="M19.417 6.875V8.75C19.417 9.09518 19.1372 9.375 18.792 9.375H16.917C16.5718 9.375 16.292 9.09518 16.292 8.75V6.875C16.292 6.52982 16.5718 6.25 16.917 6.25H18.792C19.1372 6.25 19.417 6.52982 19.417 6.875Z" stroke="#FF9D5C" stroke-width="1.5" stroke-linecap="round" stroke-linejoin="round"/>
<path d="M19.417 3.125H22.542V6.25" stroke="#FF9D5C" stroke-width="1.5" stroke-linecap="round" stroke-linejoin="round"/>
<path d="M19.417 21.875H22.542V18.75" stroke="#FF9D5C" stroke-width="1.5" stroke-linecap="round" stroke-linejoin="round"/>
<path d="M6.91699 3.125H3.79199V6.25" stroke="#FF9D5C" stroke-width="1.5" stroke-linecap="round" stroke-linejoin="round"/>
<path d="M6.91699 21.875H3.79199V18.75" stroke="#FF9D5C" stroke-width="1.5" stroke-linecap="round" stroke-linejoin="round"/>
</svg>
