<svg width="26" height="25" viewBox="0 0 26 25" fill="none" xmlns="http://www.w3.org/2000/svg">
<path d="M9.70801 6.875V8.75C9.70801 9.09518 9.42818 9.375 9.08301 9.375H7.20801C6.86283 9.375 6.58301 9.09518 6.58301 8.75V6.875C6.58301 6.52982 6.86283 6.25 7.20801 6.25H9.08301C9.42818 6.25 9.70801 6.52982 9.70801 6.875Z" stroke="#DC8E8E" stroke-width="1.5" stroke-linecap="round" stroke-linejoin="round"/>
<path d="M6.58301 12.5H9.70801" stroke="#DC8E8E" stroke-width="1.5" stroke-linecap="round" stroke-linejoin="round"/>
<path d="M15.958 12.5V15.625" stroke="#DC8E8E" stroke-width="1.5" stroke-linecap="round" stroke-linejoin="round"/>
<path d="M12.833 18.75H15.958" stroke="#DC8E8E" stroke-width="1.5" stroke-linecap="round" stroke-linejoin="round"/>
<path d="M12.833 12.5111L12.843 12.5" stroke="#DC8E8E" stroke-width="1.5" stroke-linecap="round" stroke-linejoin="round"/>
<path d="M19.083 12.5111L19.093 12.5" stroke="#DC8E8E" stroke-width="1.5" stroke-linecap="round" stroke-linejoin="round"/>
<path d="M12.833 15.6361L12.843 15.625" stroke="#DC8E8E" stroke-width="1.5" stroke-linecap="round" stroke-linejoin="round"/>
<path d="M19.083 15.6361L19.093 15.625" stroke="#DC8E8E" stroke-width="1.5" stroke-linecap="round" stroke-linejoin="round"/>
<path d="M19.083 18.7611L19.093 18.75" stroke="#DC8E8E" stroke-width="1.5" stroke-linecap="round" stroke-linejoin="round"/>
<path d="M12.833 9.38611L12.843 9.375" stroke="#DC8E8E" stroke-width="1.5" stroke-linecap="round" stroke-linejoin="round"/>
<path d="M12.833 6.26111L12.843 6.25" stroke="#DC8E8E" stroke-width="1.5" stroke-linecap="round" stroke-linejoin="round"/>
<path d="M9.70801 16.25V18.125C9.70801 18.4702 9.42818 18.75 9.08301 18.75H7.20801C6.86283 18.75 6.58301 18.4702 6.58301 18.125V16.25C6.58301 15.9048 6.86283 15.625 7.20801 15.625H9.08301C9.42818 15.625 9.70801 15.9048 9.70801 16.25Z" stroke="#DC8E8E" stroke-width="1.5" stroke-linecap="round" stroke-linejoin="round"/>
<path d="M19.083 6.875V8.75C19.083 9.09518 18.8032 9.375 18.458 9.375H16.583C16.2378 9.375 15.958 9.09518 15.958 8.75V6.875C15.958 6.52982 16.2378 6.25 16.583 6.25H18.458C18.8032 6.25 19.083 6.52982 19.083 6.875Z" stroke="#DC8E8E" stroke-width="1.5" stroke-linecap="round" stroke-linejoin="round"/>
<path d="M19.083 3.125H22.208V6.25" stroke="#DC8E8E" stroke-width="1.5" stroke-linecap="round" stroke-linejoin="round"/>
<path d="M19.083 21.875H22.208V18.75" stroke="#DC8E8E" stroke-width="1.5" stroke-linecap="round" stroke-linejoin="round"/>
<path d="M6.58301 3.125H3.45801V6.25" stroke="#DC8E8E" stroke-width="1.5" stroke-linecap="round" stroke-linejoin="round"/>
<path d="M6.58301 21.875H3.45801V18.75" stroke="#DC8E8E" stroke-width="1.5" stroke-linecap="round" stroke-linejoin="round"/>
</svg>
