<svg width="25" height="26" viewBox="0 0 25 26" fill="none" xmlns="http://www.w3.org/2000/svg">
<g clip-path="url(#clip0_180_292)">
<path d="M14.8438 0.5C15.051 0.5 15.2497 0.58231 15.3962 0.728823C15.5427 0.875336 15.625 1.07405 15.625 1.28125C15.625 1.48845 15.7073 1.68716 15.8538 1.83368C16.0003 1.98019 16.199 2.0625 16.4062 2.0625C16.6135 2.0625 16.8122 2.14481 16.9587 2.29132C17.1052 2.43784 17.1875 2.63655 17.1875 2.84375V3.625C17.1875 3.8322 17.1052 4.03091 16.9587 4.17743C16.8122 4.32394 16.6135 4.40625 16.4062 4.40625H8.59375C8.38655 4.40625 8.18784 4.32394 8.04132 4.17743C7.89481 4.03091 7.8125 3.8322 7.8125 3.625V2.84375C7.8125 2.63655 7.89481 2.43784 8.04132 2.29132C8.18784 2.14481 8.38655 2.0625 8.59375 2.0625C8.80095 2.0625 8.99966 1.98019 9.14618 1.83368C9.29269 1.68716 9.375 1.48845 9.375 1.28125C9.375 1.07405 9.45731 0.875336 9.60382 0.728823C9.75034 0.58231 9.94905 0.5 10.1562 0.5H14.8438Z" fill="#1E1E1E"/>
<path d="M4.6875 4.40625C4.6875 4.19905 4.76981 4.00034 4.91632 3.85382C5.06284 3.70731 5.26155 3.625 5.46875 3.625H6.25C6.4572 3.625 6.65591 3.54269 6.80243 3.39618C6.94894 3.24966 7.03125 3.05095 7.03125 2.84375C7.03125 2.63655 6.94894 2.43784 6.80243 2.29132C6.65591 2.14481 6.4572 2.0625 6.25 2.0625H5.46875C4.84715 2.0625 4.25101 2.30943 3.81147 2.74897C3.37193 3.18851 3.125 3.78465 3.125 4.40625V23.1562C3.125 23.7779 3.37193 24.374 3.81147 24.8135C4.25101 25.2531 4.84715 25.5 5.46875 25.5H19.5312C20.1529 25.5 20.749 25.2531 21.1885 24.8135C21.6281 24.374 21.875 23.7779 21.875 23.1562V4.40625C21.875 3.78465 21.6281 3.18851 21.1885 2.74897C20.749 2.30943 20.1529 2.0625 19.5312 2.0625H18.75C18.5428 2.0625 18.3441 2.14481 18.1976 2.29132C18.0511 2.43784 17.9688 2.63655 17.9688 2.84375C17.9688 3.05095 18.0511 3.24966 18.1976 3.39618C18.3441 3.54269 18.5428 3.625 18.75 3.625H19.5312C19.7385 3.625 19.9372 3.70731 20.0837 3.85382C20.2302 4.00034 20.3125 4.19905 20.3125 4.40625V23.1562C20.3125 23.3635 20.2302 23.5622 20.0837 23.7087C19.9372 23.8552 19.7385 23.9375 19.5312 23.9375H5.46875C5.26155 23.9375 5.06284 23.8552 4.91632 23.7087C4.76981 23.5622 4.6875 23.3635 4.6875 23.1562V4.40625Z" fill="#1E1E1E"/>
<path d="M16.9594 12.7719C17.1061 12.6252 17.1885 12.4262 17.1885 12.2188C17.1885 12.0113 17.1061 11.8123 16.9594 11.6656C16.8127 11.5189 16.6137 11.4365 16.4063 11.4365C16.1988 11.4365 15.9998 11.5189 15.8531 11.6656L11.7188 15.8016L9.92814 14.0094C9.78144 13.8627 9.58247 13.7803 9.37501 13.7803C9.16755 13.7803 8.96858 13.8627 8.82189 14.0094C8.67519 14.1561 8.59277 14.355 8.59277 14.5625C8.59277 14.77 8.67519 14.9689 8.82189 15.1156L11.1656 17.4594C11.2382 17.5321 11.3244 17.5899 11.4193 17.6292C11.5142 17.6686 11.616 17.6889 11.7188 17.6889C11.8215 17.6889 11.9233 17.6686 12.0182 17.6292C12.1131 17.5899 12.1993 17.5321 12.2719 17.4594L16.9594 12.7719Z" fill="#1E1E1E"/>
</g>
<defs>
<clipPath id="clip0_180_292">
<rect width="25" height="25" fill="white" transform="translate(0 0.5)"/>
</clipPath>
</defs>
</svg>
