<svg width="25" height="26" viewBox="0 0 25 26" fill="none" xmlns="http://www.w3.org/2000/svg">
<g clip-path="url(#clip0_180_306)">
<path d="M11.0156 19.0701C11.0156 21.2811 10.1594 22.517 8.63438 22.517C7.10625 22.5154 6.25 21.2811 6.25 19.0701C6.25 16.8639 7.10625 15.6279 8.63438 15.6279C10.1594 15.6279 11.0156 16.8623 11.0156 19.0701ZM8.63438 16.5514C7.7875 16.5514 7.33437 17.4311 7.33437 19.0701C7.33437 19.2076 7.33906 19.3404 7.34375 19.4639L9.77969 17.6779C9.58281 16.9373 9.19375 16.5529 8.63438 16.5529V16.5514ZM7.49063 20.4701C7.6875 21.2076 8.07188 21.592 8.63438 21.592C9.47813 21.592 9.93125 20.7123 9.93125 19.0701C9.93125 18.9373 9.92656 18.8045 9.92188 18.6795L7.49063 20.4701ZM16.9609 21.4451V22.3748H12.2734V21.4451H14.1188V16.9061H14.0406L12.2656 18.0732V16.9982L14.125 15.7701H15.2031V21.4467H16.9609V21.4451Z" fill="#1E1E1E"/>
<path d="M21.875 22.375V7.53125L14.8438 0.5H6.25C5.4212 0.5 4.62634 0.82924 4.04029 1.41529C3.45424 2.00134 3.125 2.7962 3.125 3.625V22.375C3.125 23.2038 3.45424 23.9987 4.04029 24.5847C4.62634 25.1708 5.4212 25.5 6.25 25.5H18.75C19.5788 25.5 20.3737 25.1708 20.9597 24.5847C21.5458 23.9987 21.875 23.2038 21.875 22.375ZM14.8438 5.1875C14.8438 5.8091 15.0907 6.40524 15.5302 6.84478C15.9698 7.28432 16.5659 7.53125 17.1875 7.53125H20.3125V22.375C20.3125 22.7894 20.1479 23.1868 19.8549 23.4799C19.5618 23.7729 19.1644 23.9375 18.75 23.9375H6.25C5.8356 23.9375 5.43817 23.7729 5.14515 23.4799C4.85212 23.1868 4.6875 22.7894 4.6875 22.375V3.625C4.6875 3.2106 4.85212 2.81317 5.14515 2.52015C5.43817 2.22712 5.8356 2.0625 6.25 2.0625H14.8438V5.1875Z" fill="#1E1E1E"/>
</g>
<defs>
<clipPath id="clip0_180_306">
<rect width="25" height="25" fill="white" transform="translate(0 0.5)"/>
</clipPath>
</defs>
</svg>
