<svg width="16" height="18" viewBox="0 0 16 18" fill="none" xmlns="http://www.w3.org/2000/svg">
<path d="M7.9883 9.3375e-05C7.78992 0.0032629 7.60089 0.0867492 7.46267 0.232229C7.32445 0.37771 7.24835 0.573298 7.25107 0.776067V1.15882H3.13193C3.03273 1.15745 2.93424 1.17623 2.8422 1.21408C2.75015 1.25193 2.66638 1.3081 2.59575 1.37932C2.52512 1.45054 2.46903 1.5354 2.43075 1.62896C2.39247 1.72252 2.37276 1.82292 2.37276 1.92433H1.2596C1.16036 1.9229 1.06183 1.94164 0.969731 1.97946C0.877636 2.01729 0.793814 2.07345 0.723138 2.14467C0.652461 2.2159 0.596339 2.30077 0.558033 2.39436C0.519726 2.48795 0.5 2.58839 0.5 2.68984C0.5 2.79129 0.519726 2.89172 0.558033 2.98531C0.596339 3.0789 0.652461 3.16378 0.723138 3.235C0.793814 3.30623 0.877636 3.36239 0.969731 3.40021C1.06183 3.43804 1.16036 3.45678 1.2596 3.45535H14.7404C14.8396 3.45678 14.9382 3.43804 15.0303 3.40021C15.1224 3.36239 15.2062 3.30623 15.2769 3.235C15.3475 3.16378 15.4037 3.0789 15.442 2.98531C15.4803 2.89172 15.5 2.79129 15.5 2.68984C15.5 2.58839 15.4803 2.48795 15.442 2.39436C15.4037 2.30077 15.3475 2.2159 15.2769 2.14467C15.2062 2.07345 15.1224 2.01729 15.0303 1.97946C14.9382 1.94164 14.8396 1.9229 14.7404 1.92433H13.6272C13.6272 1.82292 13.6075 1.72252 13.5692 1.62896C13.531 1.5354 13.4749 1.45054 13.4043 1.37932C13.3336 1.3081 13.2499 1.25193 13.1578 1.21408C13.0658 1.17623 12.9673 1.15745 12.8681 1.15882H8.74893V0.776067C8.75031 0.673651 8.73156 0.571993 8.6938 0.477116C8.65604 0.382239 8.60004 0.29607 8.52912 0.223714C8.45819 0.151357 8.37378 0.0942832 8.28088 0.0558721C8.18799 0.017461 8.08849 -0.00150624 7.9883 9.3375e-05ZM1.2596 4.98636L2.60241 16.6484C2.69079 17.4193 3.32916 18 4.08858 18H11.9114C12.6708 18 13.3085 17.4193 13.3976 16.6484L14.7404 4.98636H1.2596Z" fill="#EF4444"/>
</svg>
