<svg width="74" height="74" viewBox="0 0 74 74" fill="none" xmlns="http://www.w3.org/2000/svg">
<g filter="url(#filter0_d_18_879)">
<path d="M45.6255 16.5127C43.5243 17.7764 30.4965 19.8826 28.3953 21.5676C26.294 23.2526 25.453 26.6225 25.4535 28.7287C25.4541 30.8349 28.3953 33.7836 30.4965 35.0473C32.5978 36.3111 39.742 35.0473 41.8433 37.1535C43.9445 39.2598 26.294 40.9447 23.7725 43.0509C21.251 45.1571 23.7725 51.4757 23.7725 51.4757C23.7725 51.4757 18.7295 44.7359 17.889 43.4721C17.0485 42.2084 9.48441 44.7359 6.54229 43.0509C3.60018 41.3659 4.0208 38.8385 4.0208 38.8385V6.82415C4.0208 6.82415 4.02079 2.61173 9.48404 0.926768C14.9473 -0.758197 35.5395 3.03298 38.4813 3.87546C41.423 4.71794 44.3648 7.6666 45.6255 10.1941C46.8863 12.7215 47.7268 15.2489 45.6255 16.5127Z" fill="url(#paint0_linear_18_879)"/>
<path d="M34.699 26.6225C34.6996 23.2526 50.2483 22.8313 50.2483 22.8313C50.2483 22.8313 60.3337 21.5676 64.957 21.5676C69.5803 21.5676 69.9995 24.5163 70 27.465C70.0005 30.4137 69.5803 45.9996 69.1595 49.3695C68.7387 52.7394 65.798 55.2669 63.276 56.9519C60.754 58.6368 51.0893 56.1094 48.9875 56.9519C46.8857 57.7943 42.2641 66.6404 43.104 65.3767C43.944 64.1129 43.944 59.058 41.8433 57.7943C39.7426 56.5306 32.1781 52.7395 31.337 49.7908C30.496 46.842 48.3249 46.842 49.4078 42.6297C50.4906 38.4173 50.6691 40.5235 50.2483 34.2048C49.8275 27.8862 34.6985 29.9924 34.699 26.6225Z" fill="url(#paint1_linear_18_879)"/>
</g>
<defs>
<filter id="filter0_d_18_879" x="0" y="0.5" width="74" height="73" filterUnits="userSpaceOnUse" color-interpolation-filters="sRGB">
<feFlood flood-opacity="0" result="BackgroundImageFix"/>
<feColorMatrix in="SourceAlpha" type="matrix" values="0 0 0 0 0 0 0 0 0 0 0 0 0 0 0 0 0 0 127 0" result="hardAlpha"/>
<feOffset dy="4"/>
<feGaussianBlur stdDeviation="2"/>
<feComposite in2="hardAlpha" operator="out"/>
<feColorMatrix type="matrix" values="0 0 0 0 0 0 0 0 0 0 0 0 0 0 0 0 0 0 0.25 0"/>
<feBlend mode="normal" in2="BackgroundImageFix" result="effect1_dropShadow_18_879"/>
<feBlend mode="normal" in="SourceGraphic" in2="effect1_dropShadow_18_879" result="shape"/>
</filter>
<linearGradient id="paint0_linear_18_879" x1="37" y1="0.5" x2="37" y2="65.5" gradientUnits="userSpaceOnUse">
<stop stop-color="#07326A"/>
<stop offset="1" stop-color="#749DC8"/>
</linearGradient>
<linearGradient id="paint1_linear_18_879" x1="37" y1="0.5" x2="37" y2="65.5" gradientUnits="userSpaceOnUse">
<stop stop-color="#07326A"/>
<stop offset="1" stop-color="#749DC8"/>
</linearGradient>
</defs>
</svg>
